<svg width="204" height="287" viewBox="0 0 204 287" fill="none" xmlns="http://www.w3.org/2000/svg">
<path d="M101.42 286.66L18.48 263.66L0 56.36H203.09L184.59 263.63L101.42 286.66Z" fill="white"/>
<path d="M168.75 250.44L184.56 73.32H101.56V269.03L168.75 250.44Z" fill="white"/>
<path d="M42.42 150.17L44.7 175.59H101.6V150.17H42.42ZM37.84 98.71L40.15 124.13H101.59V98.71H37.79H37.84ZM101.59 216.2H101.48L73.16 208.55L71.35 188.27H45.78L49.34 228.19L101.42 242.68H101.54L101.59 216.2Z" fill="#33CECE"/>
<path d="M47.8 0H78.59V12.88H60.67V25.76H78.59V38.64H47.8V0ZM84.8 0H115.59V11.2H97.63V13.44H115.55V39.2H84.75V27.44H102.67V25.2H84.75V0H84.8ZM121.8 0H152.59V11.2H134.58V13.44H152.5V39.2H121.7V27.44H139.62V25.2H121.7V0H121.8Z" fill="#2EC6C6"/>
<path d="M160.56 150.17L165.15 98.71H101.42V124.13H137.25L134.94 150.13H101.42V175.55H132.73L129.73 208.55L101.42 216.22V242.67L153.54 228.22L153.92 223.92L159.92 156.98L160.54 150.15L160.56 150.17Z" fill="#2EC6C6"/>
</svg>
