<svg width="168" height="237" viewBox="0 0 168 237" fill="none" xmlns="http://www.w3.org/2000/svg">
<path d="M58.77 187.2L51.98 187.65L48.4 187.89V179.24L53.1 178.39L56.01 177.86C56.01 177.86 65.01 151.23 73.65 156.07C82.29 160.91 58.77 187.2 58.77 187.2Z" fill="#33CECE"/>
<path d="M167.27 46.4L152.03 217.1L83.53 236.1L15.22 217.1L0 46.4H167.27Z" fill="white"/>
<path d="M83.63 221.58L138.98 206.24L151.98 60.36H83.63V221.58Z" fill="white"/>
<path d="M54.01 102.24H83.63V81.3H31.13L31.63 86.92L36.78 144.62H83.64V123.68H55.93L54.01 102.24ZM58.77 155.09H37.77L40.7 187.97L83.54 199.91H83.64V178.06H83.55L60.23 171.76L58.77 155.09Z" fill="#2EC6C6"/>
<path d="M15.5701 0H26.2101V10.51H35.9401V0H46.5801V31.84H35.9401V21.18H26.2101V31.84H15.5701V0ZM60.5701 10.56H51.2001V0H80.5801V10.56H71.2101V31.84H60.5801V10.56H60.5701ZM85.2501 0H96.3501L103.18 11.19L110 0H121.1V31.84H110.5V16.06L103.18 27.38H103L95.6701 16.06V31.84H85.2501V0ZM126.39 0H137.03V21.31H152.03V31.83H126.42V0H126.39Z" fill="#2EC6C6"/>
<path d="M83.5601 144.62H109.34L106.91 171.78L83.5601 178.08V199.91L126.49 188.01L126.8 184.47L131.72 129.34L132.23 123.72H83.5601V144.66V144.62ZM83.5601 102.19V102.24H134.14L134.56 97.53L135.56 86.91L136.06 81.29H83.5601V102.18V102.19Z" fill="#33CECE"/>
</svg>
