<svg width="264" height="264" viewBox="0 0 264 264" fill="none" xmlns="http://www.w3.org/2000/svg">
<path d="M0 0H263.17V263.15H0V0Z" fill="white"/>
<path d="M69.22 219.93L89.3599 207.74C93.2499 214.63 96.7799 220.46 105.26 220.46C113.39 220.46 118.51 217.28 118.51 204.92V120.83H143.24V205.26C143.24 230.87 128.24 242.53 106.32 242.53C86.5399 242.53 75.0599 232.28 69.2299 219.92L69.22 219.93ZM156.67 217.27L176.8 205.61C182.1 214.27 188.99 220.61 201.18 220.61C211.43 220.61 217.96 215.49 217.96 208.42C217.96 199.94 211.25 196.94 199.96 191.99L193.78 189.34C175.94 181.75 164.1 172.21 164.1 152.07C164.1 133.52 178.23 119.39 200.31 119.39C216.03 119.39 227.31 124.87 235.46 139.17L216.21 151.54C211.97 143.94 207.38 140.94 200.31 140.94C193.07 140.94 188.47 145.53 188.47 151.54C188.47 158.96 193.06 161.96 203.66 166.54L209.84 169.19C230.84 178.19 242.7 187.38 242.7 208.05C242.7 230.31 225.21 242.5 201.7 242.5C178.7 242.5 163.9 231.5 156.7 217.24" fill="#33CECE"/>
</svg>
