<svg width="587" height="663" viewBox="0 0 587 663" fill="none" xmlns="http://www.w3.org/2000/svg">
<path d="M509 265H96V407H509V265Z" fill="white"/>
<path d="M144.089 362.494V326.77H188.693V324.68H144.089V292.089H191.513V290H142V364.583H191.931V362.494H144.09H144.089ZM232.148 310.891L213.659 335.23L195.587 310.892H192.871L212.405 336.798L190.99 364.582H193.497L213.658 338.363L233.923 364.582H236.534L215.016 336.796L234.654 310.891H232.147L232.148 310.891ZM242.802 382.968V349.542H243.011C244.265 354.416 246.737 358.333 250.428 361.293C254.119 364.253 258.819 365.733 264.529 365.733C268.22 365.733 271.493 364.984 274.349 363.487C277.204 361.99 279.589 359.953 281.504 357.376C283.419 354.799 284.881 351.805 285.891 348.393C286.901 344.981 287.406 341.394 287.406 337.634C287.406 333.595 286.883 329.869 285.839 326.457C284.794 323.044 283.279 320.084 281.295 317.578C279.31 315.071 276.908 313.12 274.087 311.728C271.267 310.335 268.081 309.639 264.529 309.639C261.813 309.639 259.289 310.039 256.956 310.84C254.623 311.641 252.552 312.772 250.741 314.235C248.92 315.709 247.335 317.452 246.04 319.405C244.717 321.39 243.707 323.566 243.011 325.934H242.802V310.891H240.713V382.968H242.802V382.968ZM264.529 363.747C257.984 363.747 252.726 361.501 248.756 357.01C244.787 352.519 242.802 346.059 242.802 337.633C242.802 334.151 243.29 330.843 244.265 327.709C245.24 324.576 246.65 321.825 248.495 319.457C250.341 317.089 252.621 315.209 255.337 313.817C258.053 312.424 261.117 311.727 264.529 311.727C268.011 311.727 271.058 312.424 273.67 313.817C276.281 315.209 278.44 317.107 280.146 319.509C281.852 321.912 283.14 324.663 284.011 327.761C284.881 330.86 285.316 334.151 285.316 337.633C285.316 340.767 284.916 343.883 284.115 346.982C283.315 350.081 282.078 352.866 280.407 355.339C278.736 357.811 276.595 359.83 273.983 361.397C271.371 362.964 268.22 363.747 264.529 363.747V363.747ZM298.896 364.583V334.186C298.896 331.261 299.314 328.405 300.15 325.62C300.985 322.835 302.274 320.38 304.015 318.256C305.756 316.132 307.966 314.461 310.648 313.242C313.329 312.023 316.515 311.518 320.206 311.727V309.638C317.002 309.569 314.2 309.916 311.797 310.683C309.394 311.449 307.323 312.493 305.581 313.817C303.84 315.14 302.448 316.689 301.403 318.465C300.36 320.238 299.585 322.157 299.105 324.158H298.896V310.891H296.807V364.584H298.896V364.583ZM322.817 338.155H367.734C367.874 334.464 367.508 330.913 366.637 327.501C365.767 324.088 364.374 321.059 362.459 318.413C360.544 315.767 358.072 313.642 355.042 312.041C352.013 310.439 348.409 309.638 344.231 309.638C341.236 309.638 338.312 310.265 335.456 311.519C332.601 312.772 330.094 314.6 327.935 317.002C325.777 319.405 324.036 322.347 322.713 325.83C321.39 329.311 320.728 333.28 320.728 337.737C320.728 341.707 321.181 345.415 322.086 348.862C322.991 352.309 324.384 355.304 326.264 357.846C328.145 360.387 330.565 362.355 333.524 363.747C336.483 365.14 340.053 365.802 344.231 365.732C350.359 365.732 355.513 364.008 359.691 360.562C363.869 357.114 366.341 352.257 367.108 345.989H365.019C364.113 351.909 361.797 356.349 358.072 359.308C354.346 362.268 349.663 363.747 344.022 363.747C340.192 363.747 336.954 363.086 334.307 361.763C331.661 360.44 329.502 358.629 327.831 356.331C326.16 354.033 324.924 351.334 324.123 348.235C323.322 345.137 322.887 341.776 322.817 338.155ZM365.645 336.066H322.818C323.026 332.306 323.722 328.928 324.906 325.934C326.09 322.939 327.64 320.38 329.555 318.256C331.47 316.132 333.698 314.513 336.24 313.399C338.782 312.284 341.515 311.727 344.44 311.727C347.922 311.727 350.985 312.372 353.632 313.66C356.278 314.948 358.489 316.707 360.266 318.935C362.041 321.163 363.382 323.758 364.287 326.717C365.192 329.677 365.645 332.793 365.645 336.066ZM411.085 326.77H413.174C413.174 320.78 411.432 316.428 407.951 313.712C404.468 310.996 399.733 309.638 393.744 309.638C390.401 309.638 387.581 310.056 385.283 310.892C382.985 311.727 381.105 312.807 379.642 314.13C378.18 315.452 377.136 316.915 376.509 318.517C375.882 320.119 375.568 321.651 375.568 323.113C375.568 326.038 376.091 328.371 377.136 330.112C378.18 331.853 379.816 333.211 382.045 334.186C383.577 334.882 385.317 335.509 387.268 336.067C389.218 336.623 391.481 337.215 394.058 337.842C396.356 338.4 398.619 338.956 400.848 339.513C403.076 340.07 405.043 340.819 406.749 341.759C408.456 342.699 409.848 343.9 410.928 345.363C412.007 346.825 412.547 348.74 412.547 351.108C412.547 353.406 412.007 355.356 410.928 356.957C409.857 358.551 408.449 359.889 406.802 360.875C405.13 361.885 403.267 362.616 401.213 363.068C399.159 363.521 397.157 363.747 395.207 363.747C388.87 363.747 384.012 362.337 380.635 359.517C377.257 356.697 375.569 352.257 375.569 346.198H373.479C373.479 352.954 375.307 357.898 378.963 361.032C382.62 364.165 388.034 365.732 395.207 365.732C397.505 365.732 399.82 365.471 402.154 364.948C404.486 364.426 406.575 363.574 408.421 362.389C410.25 361.222 411.787 359.649 412.912 357.794C414.061 355.913 414.636 353.615 414.636 350.899C414.636 348.322 414.131 346.233 413.121 344.631C412.111 343.03 410.789 341.707 409.152 340.662C407.515 339.618 405.67 338.8 403.616 338.208C401.55 337.612 399.478 337.038 397.4 336.484C394.843 335.813 392.284 335.151 389.722 334.499C387.529 333.942 385.492 333.28 383.612 332.514C381.801 331.748 380.356 330.652 379.277 329.224C378.197 327.796 377.658 325.76 377.658 323.113C377.658 322.626 377.797 321.755 378.075 320.502C378.354 319.248 379.016 317.977 380.06 316.689C381.105 315.401 382.706 314.252 384.865 313.242C387.024 312.232 389.984 311.727 393.744 311.727C396.321 311.727 398.671 312.006 400.795 312.563C402.919 313.12 404.747 314.008 406.279 315.227C407.811 316.446 408.995 317.995 409.831 319.875C410.666 321.756 411.085 324.054 411.085 326.77V326.77ZM459.448 326.77H461.537C461.537 320.78 459.797 316.428 456.315 313.712C452.833 310.996 448.097 309.638 442.108 309.638C438.766 309.638 435.945 310.056 433.647 310.892C431.349 311.727 429.469 312.807 428.007 314.13C426.544 315.452 425.499 316.915 424.872 318.517C424.246 320.119 423.933 321.651 423.933 323.113C423.933 326.038 424.455 328.371 425.5 330.112C426.544 331.853 428.181 333.211 430.409 334.186C431.941 334.882 433.682 335.509 435.632 336.067C437.581 336.623 439.845 337.215 442.422 337.842C444.72 338.4 446.983 338.956 449.211 339.513C451.44 340.07 453.407 340.819 455.114 341.759C456.819 342.699 458.213 343.9 459.292 345.363C460.371 346.825 460.911 348.74 460.911 351.108C460.911 353.406 460.371 355.356 459.292 356.957C458.221 358.551 456.813 359.888 455.166 360.875C453.494 361.885 451.631 362.616 449.577 363.068C447.523 363.521 445.521 363.747 443.571 363.747C437.233 363.747 432.376 362.337 428.999 359.517C425.621 356.697 423.933 352.257 423.933 346.198H421.844C421.844 352.954 423.671 357.898 427.328 361.032C430.983 364.165 436.398 365.732 443.571 365.732C445.869 365.732 448.184 365.471 450.517 364.948C452.85 364.426 454.939 363.574 456.785 362.389C458.614 361.222 460.151 359.649 461.277 357.794C462.426 355.913 463 353.615 463 350.899C463 348.322 462.495 346.233 461.485 344.631C460.476 343.03 459.153 341.707 457.516 340.662C455.88 339.618 454.034 338.8 451.98 338.208C449.914 337.612 447.842 337.038 445.764 336.484C443.208 335.813 440.648 335.151 438.087 334.499C435.893 333.942 433.856 333.28 431.976 332.514C430.165 331.748 428.72 330.652 427.641 329.224C426.561 327.796 426.022 325.76 426.022 323.113C426.022 322.626 426.161 321.755 426.44 320.502C426.718 319.248 427.38 317.977 428.424 316.689C429.469 315.401 431.071 314.252 433.229 313.242C435.388 312.232 438.348 311.727 442.109 311.727C444.685 311.727 447.035 312.006 449.159 312.563C451.284 313.12 453.111 314.008 454.643 315.227C456.176 316.446 457.359 317.995 458.195 319.875C459.031 321.756 459.449 324.054 459.449 326.77H459.448Z" fill="#222222"/>
<g clip-path="url(#clip0)">
<path d="M284 0H0V211.408H284V0Z" fill="white"/>
<path d="M188.041 79.4244C177.589 33.3154 155.804 21.0406 150.247 12.3636C147.955 8.54113 145.925 4.56787 144.171 0.471069C143.877 4.56722 143.338 7.1478 139.856 10.2541C132.866 16.487 103.175 40.6816 100.677 93.0715C98.3487 141.918 136.586 172.038 141.638 175.152C145.523 177.063 150.254 175.193 152.561 173.438C170.994 160.788 196.178 127.063 188.061 79.4244" fill="#33CECE"/>
<path d="M145.755 149.141C144.792 161.231 144.103 168.256 141.659 175.165C141.659 175.165 143.263 186.675 144.389 198.868H148.376C149.327 190.282 150.779 181.759 152.725 173.342C147.564 170.803 145.953 159.75 145.755 149.141Z" fill="#2BA977"/>
<path d="M152.718 173.349C147.503 170.939 145.994 159.654 145.762 149.141C147.052 131.798 147.428 114.4 146.888 97.0174C146.615 87.8966 147.018 12.541 144.642 1.50873C146.267 5.24526 148.14 8.86929 150.247 12.3567C155.804 21.0406 177.596 33.3154 188.041 79.4244C196.178 126.981 171.13 160.617 152.718 173.349Z" fill="#2EC6C6"/>
</g>
<path d="M445 451H161V662.408H445V451Z" fill="white"/>
<path d="M297.837 493H318.649V588.387C307.989 590.404 300.141 591.197 291.65 591.197C266.232 591.17 253 579.814 253 558.005C253 536.991 267.035 523.353 288.784 523.353C292.159 523.353 294.73 523.619 297.837 524.414V493ZM298.567 541.604C296.129 540.808 294.121 540.543 291.549 540.543C281.023 540.543 274.943 546.964 274.943 558.216C274.943 569.171 280.755 575.221 291.416 575.221C293.719 575.221 295.594 575.091 298.567 574.693V541.604V541.604Z" fill="#2EC6C6"/>
<path d="M352.682 525.914V573.673C352.682 590.12 351.45 598.03 347.834 604.849C344.459 611.405 340.013 615.539 330.826 620.105L311.514 611.004C320.702 606.735 325.148 602.962 327.987 597.205C330.96 591.317 331.897 584.498 331.897 566.562V525.914H352.682V525.914ZM329.8 493H350.612V514.146H329.8V493Z" fill="#2EC6C6"/>
<path d="M587 0H303V211.408H587V0Z" fill="white"/>
<path fill-rule="evenodd" clip-rule="evenodd" d="M458.43 132.077C438.73 132.077 434.6 123.037 434.6 115.447C434.6 114.727 435.18 114.147 435.9 114.147H441.72C442.36 114.147 442.9 114.617 443 115.247C443.88 121.177 446.49 124.167 458.41 124.167C467.9 124.167 471.93 122.027 471.93 116.987C471.93 114.087 470.78 111.937 456.04 110.497C443.71 109.277 436.09 106.568 436.09 96.6975C436.09 87.6175 443.75 82.2075 456.59 82.2075C471.01 82.2075 478.15 87.2075 479.05 97.9675C479.08 98.3375 478.95 98.6975 478.7 98.9675C478.45 99.2275 478.1 99.3875 477.74 99.3875H471.9C471.29 99.3875 470.76 98.9575 470.64 98.3775C469.23 92.1475 465.83 90.1475 456.57 90.1475C446.21 90.1475 445.01 93.7575 445.01 96.4575C445.01 99.7375 446.43 100.698 460.41 102.548C474.25 104.388 480.82 106.977 480.82 116.707C480.82 126.517 472.64 132.137 458.37 132.137L458.43 132.077ZM444.52 167.877C442.87 167.877 441.24 167.448 439.8 166.618L424.77 157.717C422.52 156.457 423.62 156.017 424.36 155.757C427.35 154.707 427.96 154.478 431.16 152.658C431.5 152.468 431.94 152.537 432.28 152.737L443.83 159.587C444.25 159.817 444.84 159.817 445.23 159.587L490.26 133.597C490.68 133.357 490.95 132.877 490.95 132.377V80.4275C490.95 79.9075 490.68 79.4475 490.25 79.1875L445.23 53.2175C444.81 52.9675 444.26 52.9675 443.84 53.2175L398.84 79.1875C398.4 79.4375 398.13 79.9175 398.13 80.4175V132.377C398.13 132.877 398.4 133.347 398.83 133.587L411.16 140.707C417.85 144.057 421.95 140.107 421.95 136.147V84.8575C421.95 84.1275 422.52 83.5575 423.26 83.5575H428.96C429.67 83.5575 430.26 84.1175 430.26 84.8575V136.167C430.26 145.097 425.39 150.217 416.93 150.217C414.33 150.217 412.27 150.217 406.55 147.397L394.72 140.587C391.8 138.897 390 135.747 390 132.377V80.4175C390 77.0375 391.8 73.8775 394.72 72.2075L439.79 46.2075C442.64 44.5975 446.43 44.5975 449.26 46.2075L494.28 72.2175C497.19 73.8975 499 77.0375 499 80.4275V132.387C499 135.757 497.19 138.897 494.28 140.597L449.26 166.597C447.82 167.427 446.18 167.857 444.52 167.857V167.877Z" fill="#2EC6C6"/>
<defs>
<clipPath id="clip0">
<rect width="284" height="211.635" fill="white"/>
</clipPath>
</defs>
</svg>
