<svg width="285" height="215" viewBox="0 0 285 215" fill="none" xmlns="http://www.w3.org/2000/svg">
<path d="M284.09 0H0V214.592H284.09V0Z" fill="url(#paint0_linear)"/>
<path d="M277.994 6.09631H6.09631V208.495H277.994V6.09631Z" fill="white"/>
<path d="M65.9499 106.886C65.9133 118.456 77.1772 129.292 94.9693 135.437C91.3558 153.331 94.23 167.773 103.963 173.428C113.968 179.24 128.912 175.286 143.124 162.941C156.901 174.874 170.848 179.596 180.609 173.988C190.641 168.222 193.735 152.821 190.138 134.344C208.709 128.269 219.116 119.092 219.153 107.37C219.188 96.0681 207.901 86.2554 190.348 80.1507C194.344 60.935 191.054 46.8421 180.918 40.9542C171.145 35.2776 157.005 40.1537 142.949 52.3088C128.406 39.3143 114.434 35.3171 104.271 41.1571C94.472 46.7881 91.6347 61.4746 95.1454 79.7229C77.9159 85.6689 65.9854 95.6298 65.9499 106.886Z" fill="white"/>
<path d="M186.608 86.146C185.161 85.6447 183.703 85.18 182.232 84.752C182.479 83.7613 182.708 82.7663 182.919 81.7669C186.285 65.6834 184.158 52.7112 176.769 48.4199C169.684 44.3041 158.063 48.5354 146.307 58.7004C145.148 59.7044 144.016 60.7371 142.909 61.7986C142.173 61.0883 141.424 60.3919 140.662 59.7092C128.409 48.7608 116.108 44.1252 108.7 48.3824C101.596 52.4648 99.4572 64.6473 102.394 79.909C102.686 81.4203 103.017 82.9236 103.385 84.4186C101.641 84.9081 99.9564 85.4302 98.3445 85.9863C83.9242 90.9627 74.6999 98.8048 74.6741 106.969C74.6474 115.401 84.4958 123.89 99.4838 129.065C100.699 129.483 101.924 129.87 103.159 130.227C102.753 131.835 102.391 133.453 102.075 135.081C99.182 150.059 101.367 161.966 108.426 166.068C115.717 170.303 127.991 166.013 139.962 155.615C140.908 154.793 141.857 153.924 142.809 153.007C144 154.164 145.222 155.286 146.476 156.375C158.008 166.362 169.416 170.416 176.495 166.348C183.806 162.146 186.218 149.37 183.188 133.806C182.957 132.617 182.689 131.404 182.383 130.166C183.245 129.915 184.089 129.654 184.916 129.384C200.53 124.266 210.705 115.944 210.732 107.399C210.757 99.2052 201.287 91.251 186.608 86.146H186.608Z" fill="#53C1DE"/>
<path d="M183.105 123.862C182.361 124.106 181.597 124.341 180.818 124.569C178.934 118.668 176.65 112.902 173.983 107.311C176.584 101.812 178.814 96.1443 180.658 90.347C182.048 90.7548 183.398 91.1836 184.699 91.6363C197.276 96.0097 204.935 102.443 204.92 107.38C204.903 112.64 196.587 119.442 183.106 123.862H183.105ZM177.483 134.917C178.822 141.799 178.997 148.018 178.08 152.876C177.255 157.241 175.617 160.148 173.598 161.308C169.303 163.777 160.143 160.521 150.281 151.981C149.151 151.002 148.013 149.958 146.87 148.851C151.008 144.299 154.833 139.473 158.32 134.405C164.522 133.902 170.682 132.972 176.757 131.623C177.03 132.744 177.272 133.842 177.483 134.917V134.917ZM120.89 160.713C116.696 162.179 113.359 162.211 111.346 161.042C107.062 158.553 105.309 148.992 107.782 136.183C108.077 134.669 108.413 133.164 108.79 131.669C114.831 132.986 120.954 133.892 127.117 134.381C130.674 139.453 134.56 144.285 138.751 148.847C137.904 149.662 137.037 150.454 136.151 151.226C130.857 155.824 125.557 159.081 120.89 160.713H120.89ZM101.381 123.571C94.7538 121.282 89.2842 118.318 85.5388 115.091C82.1736 112.19 80.4786 109.315 80.486 106.987C80.5016 102.033 87.908 95.737 100.241 91.4809C101.789 90.949 103.351 90.4628 104.928 90.0222C106.739 95.8957 108.936 101.643 111.505 107.226C108.868 112.873 106.607 118.688 104.736 124.633C103.609 124.307 102.491 123.953 101.381 123.571ZM108.102 78.8106C105.586 65.7343 107.315 55.882 111.596 53.4219C116.156 50.8013 126.209 54.5905 136.788 64.0433C137.464 64.6475 138.143 65.2801 138.823 65.9344C134.633 70.4409 130.746 75.2202 127.188 80.2408C121.08 80.7692 115.012 81.6925 109.023 83.0051C108.681 81.6147 108.374 80.2163 108.102 78.81V78.8106ZM166.745 93.4878C165.422 91.1861 164.05 88.9136 162.629 86.6705C166.969 87.2322 171.125 87.9739 175.028 88.878C173.762 92.8501 172.296 96.7557 170.636 100.58C169.386 98.1903 168.089 95.8262 166.745 93.4878ZM142.885 70.1008C145.705 73.1948 148.367 76.4292 150.861 79.7917C145.505 79.5217 140.144 79.5035 134.78 79.7373C137.435 76.2598 140.153 73.0301 142.885 70.1008ZM118.724 93.3758C117.382 95.6867 116.095 98.028 114.862 100.4C113.182 96.3799 111.746 92.4283 110.576 88.613C114.46 87.7563 118.602 87.0595 122.917 86.5342C121.466 88.7816 120.069 91.0621 118.724 93.3758ZM122.91 128.123C118.7 127.652 114.517 126.966 110.377 126.067C111.591 122.192 113.083 118.165 114.825 114.07C116.048 116.45 117.326 118.801 118.66 121.122C120.021 123.489 121.437 125.823 122.91 128.123V128.123ZM142.81 144.678C140.065 141.696 137.328 138.4 134.655 134.855C137.26 134.966 139.913 135.025 142.615 135.034C145.388 135.043 148.126 134.991 150.829 134.878C148.325 138.279 145.649 141.55 142.81 144.678V144.678ZM170.649 114.037C172.366 117.95 173.878 121.95 175.18 126.02C170.987 126.949 166.749 127.657 162.482 128.144C163.927 125.868 165.327 123.565 166.681 121.233C168.057 118.864 169.379 116.465 170.649 114.037V114.037ZM161.655 118.314C159.582 121.888 157.395 125.391 155.094 128.825C151.056 129.1 146.884 129.236 142.633 129.223C138.4 129.209 134.281 129.064 130.316 128.795C127.978 125.356 125.773 121.833 123.7 118.226C121.638 114.64 119.715 110.98 117.93 107.245C119.732 103.523 121.673 99.873 123.752 96.2946V96.2959C125.828 92.7193 128.038 89.2254 130.382 85.8141C134.429 85.521 138.578 85.374 142.772 85.3872C146.985 85.4005 151.139 85.575 155.183 85.8961C157.48 89.3142 159.654 92.8101 161.705 96.3838C163.767 99.9648 165.711 103.61 167.536 107.319C165.707 111.053 163.747 114.718 161.655 118.314H161.655ZM173.85 53.4457C178.398 56.0879 180.136 66.6893 177.23 80.5759C177.039 81.4805 176.832 82.3815 176.609 83.2788C170.62 81.9014 164.546 80.9221 158.427 80.3473C154.936 75.2986 151.109 70.4909 146.971 65.9571C147.993 64.978 149.039 64.0247 150.109 63.0972C160.181 54.3871 169.58 50.9652 173.85 53.4457V53.4457Z" fill="white"/>
<path d="M142.741 95.0342C145.144 95.0418 147.491 95.7617 149.485 97.1031C151.479 98.4444 153.03 100.347 153.943 102.57C154.855 104.793 155.088 107.236 154.612 109.592C154.136 111.947 152.972 114.108 151.267 115.802C149.563 117.496 147.394 118.646 145.036 119.108C142.677 119.569 140.235 119.321 138.018 118.394C135.801 117.467 133.908 115.904 132.58 113.902C131.251 111.9 130.546 109.548 130.553 107.145C130.558 105.55 130.878 103.971 131.493 102.499C132.108 101.027 133.007 99.6902 134.139 98.5656C135.271 97.441 136.613 96.5503 138.089 95.9444C139.565 95.3385 141.146 95.0292 142.741 95.0342" fill="#53C1DE"/>
<defs>
<linearGradient id="paint0_linear" x1="181783" y1="100921" x2="181783" y2="54871.8" gradientUnits="userSpaceOnUse">
<stop stop-color="#808080" stop-opacity="0.25"/>
<stop offset="0.53514" stop-color="#808080" stop-opacity="0.12"/>
<stop offset="1" stop-color="#808080" stop-opacity="0.1"/>
</linearGradient>
</defs>
</svg>
