<svg width="645" height="477" viewBox="0 0 645 477" fill="none" xmlns="http://www.w3.org/2000/svg">
<path d="M68.8947 273.617L64.8612 269.038L62.7325 266.625L68.8796 261.894L72.0543 264.769L74.0226 266.547C74.0226 266.547 97.8695 258.378 99.1557 267.165C100.442 275.952 68.8947 273.617 68.8947 273.617Z" fill="#33CECE"/>
<path d="M276.166 236.869L103.449 352.556L47.6867 317.959L28.6212 255.332L184.678 118L276.166 236.869Z" fill="white"/>
<path d="M58.0599 310.088L99.2348 341.032L210.014 270.481L172.63 221.909L58.0599 310.088Z" fill="white"/>
<path d="M126.667 223.766L142.868 244.815L157.749 233.362L129.034 196.053L125.314 199.482L87.1264 234.701L112.756 268.002L127.637 256.549L112.481 236.857L126.667 223.766ZM91.7134 256.055L80.2275 241.131L58.4641 261.197L73.4103 298.172L73.465 298.243L88.9926 286.292L88.9434 286.228L80.6655 266.21L91.7134 256.055Z" fill="#2EC6C6"/>
<path d="M178.299 140.529L184.118 148.09L176.65 153.838L181.971 160.753L189.44 155.004L195.26 162.566L172.633 179.98L166.813 172.419L174.389 166.589L169.067 159.674L161.492 165.505L155.672 157.943L178.299 140.529ZM195.407 178.283L190.282 171.625L197.787 165.849L213.856 186.727L206.352 192.503L201.227 185.844L186.104 197.484L180.29 189.929L195.413 178.29L195.407 178.283ZM216.41 190.046L222.481 197.934L218.265 208.908L229.947 207.635L236.018 215.523L213.392 232.938L207.594 225.405L218.808 216.774L206.76 217.763L206.661 217.636L210.697 206.235L199.483 214.866L193.783 207.461L216.41 190.046ZM238.912 219.282L244.731 226.843L229.588 238.499L237.792 249.158L230.316 254.912L216.308 236.713L238.928 219.303L238.912 219.282Z" fill="#2EC6C6"/>
<path d="M112.713 267.945L126.813 286.265L106.183 299.394L88.9346 286.246L73.4212 298.186L105.358 322.185L108.044 320.469L149.912 293.812L154.185 291.101L127.565 256.514L112.684 267.967L112.713 267.945ZM142.865 244.738L142.83 244.765L170.494 280.71L174.071 278.432L182.165 273.334L186.433 270.616L157.718 233.307L142.872 244.732L142.865 244.738Z" fill="#33CECE"/>
<path d="M505.079 170L642.952 229.083L583.874 366.947L446 307.863L505.079 170Z" fill="white"/>
<path d="M491.967 300.761L505.255 298.896C505.746 303.379 506.287 307.226 510.729 309.13C514.989 310.955 518.385 310.438 521.16 303.963L540.039 259.909L552.995 265.461L534.04 309.693C528.29 323.11 517.814 325.851 506.33 320.93C495.967 316.489 492.254 308.542 491.975 300.758L491.967 300.761ZM538.379 319L551.543 317.411C552.375 323.138 554.562 328.006 560.948 330.743C566.318 333.044 570.888 331.828 572.476 328.124C574.379 323.681 571.538 320.603 566.734 315.475L564.091 312.699C556.449 304.718 552.388 297.062 556.909 286.51C561.074 276.792 571.649 272.562 583.217 277.519C591.452 281.048 596.132 286.451 597.191 295.773L584.329 297.932C583.814 292.998 582.082 290.396 578.378 288.809C574.585 287.183 571.145 288.555 569.796 291.704C568.13 295.591 569.861 298.193 574.386 302.973L577.029 305.748C586.01 315.178 590.16 322.655 585.52 333.484C580.522 345.146 568.623 347.606 556.306 342.328C544.256 337.164 538.972 328.078 538.402 318.991" fill="#33CECE"/>
<path d="M416.255 278.857L253.444 271L244 466.71L406.811 474.567L416.255 278.857Z" fill="white"/>
<path d="M387.954 418.417L394.687 418.779C394.687 418.779 381.347 435.141 380.258 436.474C379.812 436.918 379.421 437.414 379.092 437.951C378.463 439.492 377.948 441.077 377.55 442.693L371.386 442.427C371.386 442.427 372.511 439.032 372.56 437.198C372.603 435.595 371.863 433.957 371.482 432.329C371.097 430.681 370.621 427.47 370.621 427.47L376.956 427.776L377.661 431.313L387.954 418.417" fill="#33CECE"/>
<path d="M369.201 419.85C370.407 420.66 370.971 424.829 370.971 424.829C370.971 424.829 364.463 424.612 360.924 424.441L357.866 424.293L353.372 440.278L347.693 440.004C347.693 440.004 352.075 422.608 353.063 419.464C353.383 418.445 354.957 418.699 357.628 418.828L361.894 419.034C364.649 419.167 367.886 418.97 369.201 419.85L369.201 419.85ZM342.381 426.447C342.487 425.657 342.313 424.854 341.888 424.179C341.273 423.123 340.672 422.855 338.926 422.716C333.999 422.322 333.919 425.984 333.919 425.984L342.381 426.447ZM347.935 422.517C348.532 425.161 346.858 431.224 346.858 431.224C346.858 431.224 339.666 430.756 335.717 430.686C334.49 430.664 333.031 430.423 332.638 430.975C332.086 431.75 332.728 433.014 333.297 433.562C333.952 434.194 335.281 434.326 335.757 434.41C338.937 434.971 345.649 434.993 345.649 434.993L344.241 440.074C344.241 440.074 334.754 440.092 330.074 438.734C329.173 438.494 328.36 437.999 327.734 437.307C327.581 437.125 327.453 436.88 327.31 436.667C327.072 436.304 326.876 435.914 326.727 435.507C325.784 432.573 327.259 427.112 328.585 424.211C328.739 423.875 328.933 423.449 329.132 423.088C329.382 422.639 329.599 422.128 329.794 421.861C329.925 421.677 330.082 421.562 330.217 421.389C330.375 421.188 330.542 420.995 330.72 420.811C331.203 420.341 331.737 419.926 332.312 419.575C334.356 418.193 337.981 417.219 342.248 417.864C343.854 418.108 346.264 418.803 347.374 420.52C347.655 421.156 347.843 421.829 347.935 422.518L347.935 422.517ZM322.087 417.093L327.595 417.326C327.595 417.326 323.824 431.737 321.917 438.761L315.582 438.455C311.154 438.241 307.185 438.599 305.66 435.349C304.182 432.192 305.979 427.206 306.874 423.803C307.507 421.394 308.833 416.473 308.833 416.473L314.542 416.696C314.542 416.696 312.556 424.362 311.698 428.196C311.391 429.569 310.833 430.849 311.301 431.898C311.745 432.897 312.43 433 314.524 433.149C315.188 433.197 317.364 433.286 317.364 433.286L322.087 417.093L322.087 417.093ZM295.805 426.334C296.48 424.313 297.429 422.132 297.411 420.281C297.365 419.403 297.099 418.55 296.638 417.801C296.177 417.052 295.535 416.431 294.771 415.994C293.514 415.507 292.145 415.38 290.819 415.625C289.493 415.87 288.261 416.479 287.26 417.383C285.63 418.986 285.011 420.92 284.333 423.591C283.828 425.574 283.392 427.673 284.059 429.27C285.24 432.095 289.37 431.69 293.783 431.929C294.523 430.205 295.16 428.258 295.805 426.334L295.805 426.334ZM303.84 418.621C304.249 423.225 301.592 428.157 299.717 432.467C301.405 432.702 302.899 432.597 303 432.729C303.103 432.898 301.611 437.914 301.175 437.907C299.828 437.877 295.368 437.698 293.509 437.609C287.443 437.316 281.749 437.437 279.001 434.281C277.899 432.861 277.222 431.159 277.048 429.37C276.928 426.864 277.272 424.357 278.062 421.975C278.625 420.014 279.452 418.139 280.52 416.401C283.284 412.074 287.878 408.985 295.274 410.106C296.946 410.399 298.55 410.996 300.006 411.867C300.093 411.924 300.394 412.188 300.463 412.235C302.158 413.432 303.622 416.162 303.84 418.621L303.84 418.621ZM277.115 414.949C276.668 416.602 276.209 418.479 275.743 420.111L269.627 419.816C270.189 418.009 270.639 416.206 271.19 414.637C273.148 414.731 274.966 414.845 277.116 414.949L277.115 414.949ZM269.334 421.335L275.233 421.62C274.255 425.851 272.396 432.662 270.968 437.397C270.074 440.36 269.468 442.524 267.365 444.01C267.176 444.144 267.075 444.071 266.917 444.208C266.526 444.546 264.778 444.876 263.817 444.934C262.072 444.948 260.327 444.858 258.592 444.664C259.181 442.86 259.853 440.692 260.378 439.075C265.01 439.864 265.34 435.465 266.447 431.267C267.087 428.841 268.988 422.303 269.334 421.335" fill="#33CECE"/>
<path d="M372.485 362.594L372.072 363.528C365.225 375.414 353.774 382.357 337.939 381.923C331.389 381.696 324.961 380.085 319.079 377.196C309.524 372.223 301.862 364.254 297.269 354.51C291.335 341.518 291.006 323.827 305.251 311.312C305.461 311.322 303.462 314.089 303.672 314.099L303.239 315.299C291.95 345.53 320.896 373.301 350.413 371.709C358.548 371.078 366.275 367.888 372.485 362.594" fill="#33CECE"/>
<path d="M355.324 349.041C362.716 349.341 369.929 346.718 375.401 341.738C370.912 351.696 359.019 357.662 343.592 354.838C330.675 352.471 318.922 338.791 318.279 325.62C317.806 316.035 321.406 310.501 327.218 303.859C325.661 306.315 324.58 309.043 324.031 311.899C320.954 332.436 338.806 348.135 355.324 349.041" fill="#33CECE"/>
<path d="M375.497 324.321C374.221 326.901 367.367 331.558 364.416 332.039C352.731 333.945 345.589 328.103 342.01 321.674C341.355 320.315 340.808 318.906 340.375 317.461C339.118 312.272 340.183 304.567 344.865 300.778C343.422 304.277 342.948 308.1 343.491 311.846C344.057 314.248 344.98 316.55 346.228 318.678C347.83 321.409 350.139 323.657 352.912 325.186C353.987 325.921 355.137 326.542 356.341 327.036C359.214 328.035 365.256 330.591 375.498 324.322" fill="#33CECE"/>
<path d="M350.609 244.249L291.694 215.356L297.019 3.00006L446.421 16.388L413.894 226.275L350.609 244.249Z" fill="white"/>
<path d="M402.527 222.043L425.834 92.7882L364.775 87.3168L351.874 231.289L402.527 222.043Z" fill="white"/>
<path d="M316.203 139.952L316.205 158.802L358.063 162.553L359.739 143.853L316.203 139.952ZM316.227 101.794L316.25 120.646L361.448 124.697L363.124 105.997L316.19 101.791L316.227 101.794ZM355.379 192.427L355.298 192.42L334.969 184.925L334.974 169.887L316.164 168.202L316.151 197.803L353.508 211.896L353.596 211.904L355.379 192.427Z" fill="#33CECE"/>
<path d="M330.061 29.8356L352.711 31.8654L351.862 41.3404L338.679 40.1591L337.83 49.6342L351.013 50.8155L350.164 60.2905L327.513 58.2608L330.061 29.8356ZM357.279 32.2747L379.93 34.3044L379.191 42.5436L365.979 41.3597L365.832 43.0075L379.014 44.1888L377.316 63.1389L354.658 61.1086L355.434 52.4574L368.616 53.6387L368.764 51.9909L355.581 50.8096L357.243 32.2714L357.279 32.2747ZM384.498 34.7138L407.148 36.7435L406.41 44.9827L393.161 43.7955L393.014 45.4433L406.196 46.6246L404.498 65.5747L381.84 63.5444L382.616 54.8932L395.798 56.0745L395.946 54.4267L382.763 53.2454L384.425 34.7072L384.498 34.7138Z" fill="#2EC6C6"/>
<path d="M403.112 147.74L409.881 110.187L362.999 105.985L361.323 124.685L387.681 127.047L384.268 146.022L359.609 143.812L357.933 162.512L380.966 164.576L376.584 188.655L355.252 192.431L353.509 211.888L392.803 204.694L393.366 201.556L402.192 152.708L403.099 147.724L403.112 147.74Z" fill="#2EC6C6"/>
</svg>
